<svg version="1.2" xmlns="http://www.w3.org/2000/svg" viewBox="0 0 1024 1024" width="1024" height="1024">
	<title>cover</title>
	<style>
		.s0 { fill: #66cccc } 
		.s1 { opacity: 1;fill: #0b1616 } 
		.s2 { opacity: 1;fill: #37676e } 
		.s3 { fill: #000000 } 
		.s4 { fill: #27394c } 
		.s5 { fill: #448288 } 
		.s6 { fill: #52a0a3 } 
		.s7 { fill: #60bfc0 } 
		.s8 { fill: #009e83 } 
		.s9 { fill: #6666cc } 
		.s10 { fill: #cc33cc } 
		.s11 { fill: #cc6633 } 
		.s12 { fill: #ff6666 } 
		.s13 { fill: #cccc66 } 
	</style>
	<g id="Background">
		<path id="Path 0" class="s0" d="m0 512v512h1024v-1024h-1024z"/>
		<path id="Path 1" class="s1" d="m417 94.6c1.4 0.2 4.8 0.5 7.7 0.6 2.8 0.2 4.9 0 4.7-0.4-0.2-0.5-3.7-0.7-7.7-0.7-3.9 0.1-6.1 0.3-4.7 0.5zm-134 55.1c2.5 0.2 6.1 0.2 8 0 1.9-0.2-0.1-0.4-4.5-0.4-4.4 0-6 0.2-3.5 0.4zm458 745c2.5 0.2 6.1 0.2 8 0 1.9-0.2-0.1-0.4-4.5-0.4-4.4 0-6 0.2-3.5 0.4zm-403 22.9c1.9 0.2 7 0.5 11.3 0.6 4.2 0.2 7.7 0 7.7-0.4 0-0.5-5.1-0.7-11.3-0.6-6.1 0.1-9.6 0.3-7.7 0.4zm-153 33.1c2.5 0.2 6.1 0.2 8 0 1.9-0.2-0.1-0.4-4.5-0.4-4.4 0-6 0.2-3.5 0.4z"/>
		<path id="Path 2" class="s2" d="m714.5 93.7c2.2 0.2 6 0.2 8.5 0 2.5-0.2 0.7-0.4-4-0.4-4.7 0-6.7 0.2-4.5 0.4zm28.5 0c2.5 0.2 6.1 0.2 8 0 1.9-0.2-0.1-0.4-4.5-0.4-4.4 0-6 0.2-3.5 0.4zm-241.6 343.8c0 9.9 0.2 13.7 0.3 8.5 0.2-5.2 0.2-13.3 0-18-0.1-4.7-0.3-0.4-0.3 9.5zm-285.4 265.2c3 0.2 7.5 0.2 10 0 2.5-0.2 0-0.3-5.5-0.3-5.5 0-7.5 0.1-4.5 0.3zm115.5 1c2.2 0.2 6 0.2 8.5 0 2.5-0.2 0.7-0.4-4-0.4-4.7 0-6.7 0.2-4.5 0.4zm266 213c3.3 0.2 8.2 0.2 11 0 2.7-0.2 0-0.3-6-0.3-6 0-8.3 0.1-5 0.3zm55.5 33c2.5 0.2 6.1 0.2 8 0 1.9-0.2-0.1-0.4-4.5-0.4-4.4 0-6 0.2-3.5 0.4z"/>
		<path id="Path 3" class="s3" d="m299.5 68.1c-2.8 0.6-7.9 2.4-11.5 4.1-3.6 1.8-8.6 5.3-11.3 8-2.6 2.6-5.4 6.4-6.2 8.3-0.8 1.9-1.5 5.3-1.5 7.5 0 2.2 0.3 4.7 0.8 5.6 0.4 0.9 1.9 2.3 3.5 3 1.5 0.8 3.6 1.4 4.7 1.4 1.7 0 1.9-0.4 1.1-2.7-0.5-1.6-0.6-5.5-0.1-8.8 0.4-3.3 1.4-7.3 2.3-9 0.8-1.6 3-4.4 4.9-6.1 1.8-1.8 4.9-4 6.8-5 2.1-1.1 6.6-1.9 11.5-2.2 7.7-0.4 8.1-0.3 11.3 2.4 1.8 1.6 3.8 4.5 4.4 6.4 0.6 1.9 0.9 6 0.6 9-0.3 3-1.4 7.5-2.6 10-1.1 2.5-3.9 6.4-6.1 8.8-2.3 2.3-5.3 4.5-6.9 4.8-1.5 0.3-2.9 0.3-3.2-0.1-0.3-0.3 1-7.7 2.8-16.3 1.8-8.6 3.5-16.5 3.8-17.4 0.3-1.6-0.2-1.7-3.6-1.3-2.2 0.3-5.7 0.7-7.8 1l-3.7 0.6c-10.6 49.9-13.9 65.4-14.1 66.7-0.4 2.1-0.1 2.2 7.1 2.2 5.1 0 7.6-0.4 7.8-1.2 0.2-0.7 1.7-7.7 3.3-15.4l2.9-14.2c8.5-1 12.8-2.1 15-3.2 2.2-1 5.8-3.6 8-5.8 2.2-2.1 5-6 6.3-8.5 1.2-2.6 2.5-6.4 2.8-8.4 0.4-2.3 0-6-0.9-9.3-1-3.5-2.8-6.6-4.9-8.7-1.8-1.8-4.9-3.8-6.8-4.6-1.9-0.8-6.2-1.7-9.5-2-3.3-0.3-8.2-0.1-11 0.4zm327.2 5.3c-3.7 0.6-6.9 1.6-7.1 2.1-0.1 0.5-1.3 6-2.6 12l-2.3 11c-4.9-4.5-5.9-4.8-11.3-4.4-4.7 0.3-7 1.1-10.3 3.4-2.4 1.7-5.8 5.3-7.7 8-1.9 2.8-4.3 7.9-5.4 11.5-1.1 3.6-2 8.1-2 10-0.1 2.7-0.9 4.2-3.8 6.9-2 1.8-5.1 4.1-6.7 4.9-1.6 0.8-5.1 1.6-7.6 1.6-3.4 0.1-5.3-0.5-6.8-1.9-1.7-1.6-2.2-3.1-2.1-7.2 0-5.1 0.1-5.3 2.8-5.3 1.5 0 5-1.1 7.7-2.4 2.8-1.2 6.7-4.2 8.8-6.4 2-2.3 4.2-5.3 4.7-6.7 0.5-1.4 1-4.4 1-6.7 0.1-2.7-0.6-5.2-1.7-6.6-1-1.3-3.6-2.7-5.8-3.2-2.4-0.5-5.9-0.5-8.7 0.1-2.7 0.5-6 1.5-7.5 2.3-1.6 0.7-4.3 3.1-6.2 5.2-1.9 2.2-4.7 6.6-6.2 9.9-1.6 3.3-3.4 9.2-4 13-0.7 3.8-0.9 9-0.6 11.5 0.4 2.5 1.7 5.8 2.9 7.4 1.3 1.6 3.8 3.5 5.6 4.3 1.7 0.7 5.6 1.3 8.5 1.3 2.8 0 7.5-0.8 10.2-1.7 2.9-1 7.2-3.8 10.3-6.5 3.8-3.5 5.2-4.3 5.2-3 0 0.9 0.9 3.2 2 5 1.1 1.7 3.4 3.9 5 4.7 1.6 0.8 4.9 1.5 7.3 1.5 2.5 0 5.6-0.8 7.7-2.2 1.9-1.1 4.3-3.1 5.3-4.2 1.5-1.7 1.9-1.8 2.4-0.6 0.4 0.8 1.9 2.7 3.5 4.3 2.1 2 3.8 2.7 6.8 2.7 2.2 0 5.4-0.7 7-1.5 1.6-0.8 3.5-2.4 4-3.5 0.5-1.1 1-2.7 1-3.5 0-0.9-0.9-1.5-2.2-1.5-1.3 0-2.9-0.5-3.6-1.2-0.7-0.7-1.2-2.4-1.2-3.8 0-1.4 2.7-15.3 6-31 3.3-15.7 6-29.1 6-29.8 0-0.6-0.3-1.1-0.7-1.1-0.5 0.1-3.8 0.7-7.6 1.3zm46.3-0.2c-3 0.5-5.8 1.4-6.2 2.1-0.3 0.7-3.2 13.4-6.3 28.2-3.1 14.8-5.6 29-5.6 31.5 0 2.5 0.5 5.8 1.3 7.4 0.7 1.6 3 3.7 5.1 4.7 2 1.1 5.8 1.9 8.5 1.9 2.6 0 6.5-0.5 8.7-1.1q4-1.1 9.6-6.8c4-3.9 6.3-7.4 7.9-11.6 1.5-4 2.4-8.9 2.7-15 0.4-6.6 0.1-10.1-1-13-0.9-2.2-2.8-4.8-4.4-5.9-2.1-1.4-4-1.7-7.3-1.4-2.5 0.3-5.4 0.8-6.5 1.2-2 0.7-2 0.6 0.2-10.1 1.2-5.9 2.3-11.4 2.3-12 0-0.7-0.8-1.2-1.7-1.2-1 0.1-4.3 0.6-7.3 1.1zm-231.9 19.6c-1 0.2-2.5 1.4-3.2 2.8-1.1 1.9-1.2 2.9-0.1 4.9 0.9 1.8 2 2.5 4.2 2.5 2.9 0 3 0.1 2.4 3.7-0.3 2.1-1.4 7-2.6 10.8-1.1 3.8-3.1 9-4.5 11.5-1.4 2.5-3.5 5.6-4.7 6.9-1.1 1.3-3.2 2.7-4.6 3.2-1.4 0.5-3.3 0.7-4.2 0.4-1-0.3-2-1.2-2.3-2-0.3-0.8 1.3-10.2 3.5-20.8 2.2-10.5 4-19.8 4-20.4 0-0.9-2.2-1.3-7.5-1.3-4.1 0-7.5 0.3-7.5 0.7 0 0.5-1.6 8.5-3.6 17.8-1.9 9.3-4.3 18.5-5.2 20.4-0.9 1.9-2.7 4-3.9 4.8-1.3 0.7-3.2 1.1-4.3 0.8-1.1-0.3-2.2-1.5-2.5-2.8-0.3-1.2 1.2-10.7 3.5-21.2 2.2-10.5 4-19.3 4-19.8 0-0.4-3.4-0.7-7.5-0.7h-7.5l-3 15c-7.4 1.4-9.8 1.7-10.2 1.4-0.5-0.2-0.8-2-0.8-3.9 0-1.9-0.7-4.8-1.5-6.5-0.8-1.7-2.7-3.9-4.2-5q-2.8-2.1-7.3-2c-2.5 0-6.1 0.4-8 0.9-1.9 0.6-5.7 3-8.5 5.4-2.7 2.4-6.2 6.6-7.7 9.3-1.4 2.7-3.4 7.8-4.3 11.4-1.1 4.2-1.6 8.8-1.3 13 0.3 3.6 1.1 7.5 1.9 8.8 0.8 1.3 2.8 3.2 4.4 4.2 1.6 1 4.6 2.1 6.5 2.5 1.9 0.4 5.8 0.2 8.5-0.4 3.3-0.7 6.5-2.4 9.5-5 2.5-2.1 5.6-6 6.9-8.7 1.4-2.7 3.2-8 4-11.8l1.6-6.8c7-2.1 9.1-2.6 9.2-2.5 0.2 0.1-0.7 4.7-1.8 10.2-1.1 5.5-1.9 12.1-1.7 14.7 0.2 3.2 1 5.4 2.8 7.2 1.4 1.5 3.9 2.9 5.5 3.2 1.6 0.3 4.9 0.1 7.3-0.5 2.6-0.7 5.4-2.4 7.5-4.6 1.7-1.9 3.5-3.4 4-3.5 0.4 0 0.7 0.6 0.7 1.2 0 0.7 1 2.3 2.2 3.6 1.3 1.2 4.1 2.6 6.3 3.2 2.5 0.5 5.7 0.5 8.5 0 2.5-0.6 6.4-2.3 8.8-4 2.3-1.6 5.8-5.4 7.6-8.3 1.9-2.8 4.7-8.8 6.2-13.2 1.6-4.9 2.9-11.3 3.2-16.5 0.5-6.6 0.2-9.1-0.9-11-0.9-1.4-2.5-2.7-3.7-3-1.2-0.3-3-0.4-4.1-0.2zm29.4 3.1c-2.2 1.1-4.7 2.6-5.6 3.3-0.8 0.7-3.2 3.5-5.3 6.3-2.1 2.7-4.6 7.7-5.5 11-1 3.3-2.2 8.5-2.5 11.5-0.5 3.5-0.2 7.3 0.6 10.4 0.8 3 2.4 5.8 4.1 7.3 1.5 1.2 4.6 2.8 7 3.4 2.3 0.6 6 0.8 8.2 0.4 2.2-0.4 6.3-1.7 9-2.9 2.8-1.3 6.7-4 8.9-6.2l3.8-3.9c-1 6.2-1.5 9-1.8 10.2-0.4 2.2-0.1 2.3 7.1 2.3h7.5c1.4-5.8 3.3-14.9 5.1-24 2.9-14.2 3.7-16.9 6-19.3 1.5-1.5 3.8-2.7 5.1-2.7 1.7 0 2.6 0.7 3.3 3.2 0.8 2.6 1.7 3.4 3.8 3.5 1.8 0.2 3.5-0.5 5.2-2.2 1.4-1.4 2.5-3.6 2.5-5 0-1.4-0.5-3.4-1-4.5-0.5-1.1-2-2.4-3.2-2.9-1.4-0.6-3.7-0.6-6 0-2.1 0.5-5.1 2-6.8 3.4-1.6 1.4-3.2 2.5-3.5 2.5-0.3 0 0-1.6 0.5-3.5l1-3.5h-15.5c-7.4 34.8-7.7 35.6-11.3 39.3-2 2.1-5.5 4.7-7.7 5.7-2.2 1.1-5.7 2-7.7 2-2.7 0-4.5-0.7-6.3-2.5-1.9-1.9-2.5-3.5-2.5-7 0-3.5 0.4-4.6 1.8-4.9 0.9-0.3 3.1-0.7 4.7-1 1.7-0.3 5.1-1.9 7.8-3.6 2.6-1.7 6-5.1 7.7-7.7 2.3-3.7 3-6 3.1-9.8 0-3.5-0.6-5.8-2-7.5-1.7-2.2-2.8-2.5-8.8-2.8-5.2-0.2-7.7 0.2-10.8 1.7zm237.2 16.4c-2.1 10-4 19.5-4.3 21.2-0.3 1.7-0.1 4.9 0.5 7.3 0.8 3 2 4.8 4.4 6.3 2.6 1.6 4.2 1.9 8.2 1.4 3.1-0.3 6.2-1.5 8.3-3l3.2-2.5c0.1 4.1-1 4.9-6 6.8-3.3 1.2-7.4 3.4-9.1 5-1.6 1.5-3.4 4.3-3.8 6.2-0.5 2.1-0.4 4.8 0.3 6.9 0.6 1.9 2.4 4.4 3.9 5.5 2.1 1.5 4.3 2.1 8 2.1 3.6-0.1 6.6-0.9 9.6-2.5 3.1-1.8 5.2-3.9 6.8-7 1.5-2.9 4.8-16.3 9.3-38 3.8-18.4 7-33.6 7-33.7 0-0.2-3.5-0.2-7.7 0l-7.7 0.2c-5.9 27.9-8.4 37.4-9.4 39-1 1.7-3 3.7-4.4 4.5-2.3 1.3-2.8 1.3-4.3 0-1.4-1.2-1.6-2.5-1.2-7 0.4-3 2.1-12.6 3.9-21.2l3.3-15.8h-15.2zm-56.2 755.5c-1.2 0.2-4.5 1.3-7.5 2.4-3 1.1-7.6 3.4-10.3 5.2-2.7 1.7-6.5 5.2-8.3 7.7-1.9 2.4-3.9 6.2-4.4 8.5-0.6 2.2-0.8 5.4-0.5 7.2 0.3 1.8 1.6 3.9 2.8 4.7 1.3 0.8 3.4 1.7 4.8 2l2.5 0.6c0-13.1 0.5-16.7 1.7-19 0.9-2 3-4.9 4.5-6.4 1.5-1.6 4.1-3.8 5.8-4.8 1.6-1 3.3-1.8 3.7-1.8 0.5 0 1 12 1.3 26.7 0.3 14.7 0.7 31.6 1 37.5l0.5 10.8 15.4-0.5c22.1-59.7 28.8-77.8 29.1-78.8 0.4-1.4-0.1-1.7-3-1.7h-3.5c-10.6 31.3-15.7 46.3-18.1 53.5l-4.4 13c-1-13.2-1.4-28.4-1.4-42.3l-0.1-25.3c-7.4 0.3-10.5 0.5-11.6 0.8zm-448.9 1.4c-3.4 0.5-9.3 2.5-13.4 4.6-4.3 2.2-9 5.5-11.3 8-2.1 2.3-4.5 5.8-5.3 7.8-0.8 1.9-1.5 5.2-1.5 7.5 0 2.2 0.4 4.8 1 6 0.5 1.1 2.5 2.4 4.2 3 1.8 0.5 3.9 1 4.5 1 1 0 1.1-0.8 0.3-3.3-0.7-2.2-0.7-5 0-8.7 0.6-3.1 2.1-7.3 3.4-9.5 1.3-2.3 4.1-5.3 6.2-6.8 2.1-1.4 5.9-3.4 8.4-4.2 2.5-0.9 7-1.6 10-1.6 4 0 6.4 0.6 9 2.3 1.9 1.2 4.4 4.1 5.5 6.3 1.7 3.3 2 5.8 1.9 15-0.1 6-0.8 14.1-1.7 18-0.8 3.8-2.4 9.4-3.6 12.5-1.1 3-3.8 7.5-5.9 10-2.1 2.4-5.2 4.8-6.8 5.2-1.6 0.5-4.3 0.4-6.2-0.2-1.7-0.6-3.2-1.2-3.2-1.3 0-0.1 2.9-14 6.4-30.8 3.6-16.7 6.4-30.6 6.3-30.7-0.1-0.1-3.6 0.2-7.7 0.8-4.1 0.6-7.6 1.1-7.6 1.2-0.1 0.2-3.4 15.4-7.3 34-3.9 18.6-7.1 34-7.1 34.3 0 0.2 3.4 0.5 7.5 0.5 6.7 0 7.5-0.3 8-2 0.5-2 0.5-2 3.2-0.2 1.6 1.1 4.6 2.5 6.8 3.2 3.2 1 4.8 1 8.5 0 3.1-0.9 6-2.9 9.5-6.5 2.7-2.8 6.5-8.3 8.4-12.1 1.8-3.8 4.2-10.3 5.3-14.4 1.1-4.4 1.9-11.3 2-16.5 0.1-5.9-0.4-10.8-1.5-14-0.9-2.8-3-7-4.7-9.3-2-2.8-4.7-5-8.3-6.7-2.8-1.3-7.9-2.6-11.2-2.9-3.3-0.2-8.7-0.1-12 0.5zm194 0.3c-2.2 0.6-5.9 2.2-8.3 3.4-2.3 1.2-6.2 4.2-8.7 6.7-2.5 2.4-5.4 6.4-6.5 8.7-1.1 2.3-2 6.2-2 8.5 0 3.2 0.6 4.9 2.5 6.8 1.4 1.3 3.2 2.5 4 2.5 0.8 0 2.1 0.2 2.7 0.4 1 0.4 1.1-0.4 0.6-3.2-0.4-2.1-0.3-6 0.1-8.7 0.5-2.8 1.5-6.4 2.4-8 0.8-1.7 3-4.5 4.9-6.2 1.8-1.7 4.8-3.9 6.5-4.7 1.8-0.9 3.3-1.2 3.3-0.6 0 0.5-6.1 17.5-13.5 37.7-7.4 20.2-13.5 36.9-13.5 37 0 0.1 1.8 0.1 4.1 0l4.1-0.2c13.4-36.7 17.7-47.7 18.2-48.2 0.4-0.5 0.6 2.2 0.2 6.2-0.3 3.8-0.8 14.9-1.1 24.7l-0.5 17.8 14.5-0.1c15.4-37.5 20.1-48 20.2-47.4 0.2 0.5-1 10.6-2.7 22.5-1.7 11.8-3 22.2-3 23.2 0 1.5 1 1.8 7.5 1.8 4.3 0 7.5-0.5 7.5-1 0-0.6 2.5-18.6 5.5-40 3-21.5 5.5-39.3 5.5-39.5 0-0.3-3.5-0.4-7.7-0.3l-7.6 0.3c-18.4 44.1-24 57.2-24.4 57.5-0.3 0.2-0.3-2.9 0-7 0.4-4.2 0.9-17.2 1.3-29l0.7-21.5c-3.7-1.2-6.6-1.5-8.8-1.5-2.2 0.1-5.8 0.7-8 1.4zm182.8 3c-1.5 0.7-3.4 2.3-4.2 3.6-0.8 1.4-1.1 3.6-0.7 5.2 0.3 1.5 1.5 3.6 2.6 4.8 1.2 1.2 3.3 2 5.5 2 2.5 0 4.2-0.8 6-2.8 1.4-1.5 2.5-3.9 2.5-5.2 0-1.4-0.6-3.4-1.3-4.5-0.8-1.2-2.8-2.6-4.5-3.2-2.3-0.9-3.7-0.8-5.9 0.1zm-55.3 1.8l-6.5 0.9c-8.4 39.8-11.7 53.7-12.7 56.6-1 2.9-2.8 5.9-4.1 6.8-1.2 0.8-3.6 1.4-5.2 1.2-2.6-0.2-3-0.7-3.3-3.7-0.2-2 1.3-11.2 3.3-20.5 2-9.4 3.8-17.8 4-18.8 0.4-1.6-0.3-1.7-7.3-1.5l-7.7 0.3c-5.8 27.8-8.4 37.5-9.4 39.5-1 1.9-2.9 3.9-4.2 4.4-1.3 0.5-3.3 0.5-4.4 0.1-1.8-0.6-1.9-1.2-1.3-6.9 0.4-3.4 2.2-13.2 4-21.9l3.3-15.7c-15.5 0-15.5 0-15.8 2.7-0.2 1.5-2.1 10.9-4.2 20.8-2.8 13.3-3.5 19-3 22 0.4 2.4 1.9 5 3.6 6.7 2.3 2.2 3.8 2.7 7.6 2.7q4.8 0 8.8-2.4c2.2-1.3 4.7-3.5 5.5-4.9 0.8-1.4 1.8-2.4 2.2-2.1 0.5 0.2 0.8 1.2 0.8 2.2-0.1 1 1.2 3 2.7 4.5 2.3 2.4 3.6 2.8 7.8 2.8 3.2 0 6.3-0.8 8.5-2.1 1.9-1.2 4.4-3.2 5.5-4.6l2-2.5c1.9 4.4 3.8 6.4 5.5 7.4 1.6 1 4.7 1.7 6.7 1.7 2.1 0 6.2-1.1 9-2.5 2.9-1.3 5.9-3.4 6.5-4.5 0.7-1.1 1.6-2 2-2 0.5 0 0.8 0.7 0.8 1.6 0 0.8 1.3 2.8 3 4.5 2.4 2.4 3.8 3 7.5 3 2.5 0 6-0.6 7.7-1.4 1.8-0.7 5-2.7 7-4.5l3.8-3.1c1.9 4.8 3.7 6.8 5.2 7.6 1.6 0.7 4.1 1.4 5.8 1.4 1.6 0 4.3-0.7 6-1.5 1.6-0.9 3.7-2.9 4.5-4.5 0.8-1.7 1.5-3.3 1.5-3.5 0-0.3-1.2-0.5-2.8-0.5-1.5 0-3.4-0.7-4.2-1.6-1.3-1.6-1.1-3.7 2.4-20.8 2.2-10.6 4.1-19.9 4.3-20.9 0.3-1.5-0.6-1.7-7.2-1.7-7 0-7.5 0.1-8 2.2-0.3 1.2-2.1 9.7-4 18.8-2 9-4.2 17.5-5 18.7-0.8 1.2-2.5 2.9-3.8 3.8-1.2 0.8-3.6 1.4-5.2 1.2-2.6-0.2-3-0.7-3.3-3.7-0.2-2 1.1-10.3 2.8-18.6 1.7-8.2 3.3-15.7 3.6-16.7 0.3-1.3 1.4-1.7 3.9-1.7 2.8 0 3.5-0.4 3.5-2 0-1.6-0.7-2-3-2-1.8 0-3-0.6-3-1.3 0-0.7 0.7-4 1.5-7.2 0.8-3.3 1.5-6.6 1.5-7.3 0-0.9-1.6-1.1-6.3-0.6-3.4 0.3-6.9 0.9-7.7 1.4-0.9 0.4-2.2 3.8-3 7.9-1.2 5.5-1.9 7.1-3.3 7.1-0.9 0-1.9 0.6-2.2 1.5-0.3 0.8-0.5 1.7-0.5 2 0 0.2 0.8 0.5 1.7 0.5 1.6 0 1.5 1.3-1.5 16-1.7 8.8-3.9 17.3-4.7 19-0.8 1.6-2.5 3.6-3.8 4.5-1.2 0.8-3.5 1.4-5.1 1.2-1.6-0.1-3.4-0.9-3.9-1.7-0.7-1.1 0.8-10.3 5.2-31.5 3.4-16.5 6.3-30.8 6.4-31.8 0.1-1-0.2-1.7-0.8-1.6-0.6 0.1-3.9 0.5-7.5 1.1zm269 17.9c-3 0.5-5.8 1.2-6.1 1.6-0.4 0.4-1.7 3.9-2.9 7.8-1.3 3.8-3.7 10.3-5.5 14.3-1.7 4.1-4.8 9.2-6.8 11.3-3.1 3.2-3.7 4.6-3.7 8.1-0.1 2.8 0.7 5.4 2.3 7.8 1.2 1.9 3.4 4 4.7 4.7 1.4 0.7 5.4 1.2 9 1.2 4.9 0.1 7.6-0.5 10.7-2.2 2.3-1.2 7.1-4.3 10.6-6.7l6.4-4.5c1.8 5.8 3.6 8.6 5.3 10 1.6 1.3 4.2 2.7 5.7 3.1 1.6 0.3 5.5 0.4 8.8 0 3.5-0.3 7-1.3 8.5-2.4 1.4-1.1 3.5-3.7 4.7-5.8 1.3-2.2 2.3-4.6 2.3-5.4 0-1.3-0.3-1.2-1.7 0.2-1 0.9-3.8 2.3-6.3 3.1-2.9 0.9-5.3 1.1-6.8 0.5-1.2-0.5-2.6-1.6-3.1-2.6-0.5-1-1-2.9-1.1-4.2-0.1-1.4-0.2-3.3-0.1-4.3 0.1-1.2 0.9-1.8 2.8-1.8 1.6 0 4.6-0.8 6.8-1.8 2.2-1 5.9-3.5 8.3-5.7 2.4-2.2 5-5.7 5.9-7.9 1-2.6 1.3-5.6 0.9-8.5-0.3-3.2-1.2-5.1-2.8-6.2-1.3-0.9-3.9-1.9-5.8-2.2-1.9-0.3-5.4-0.1-7.8 0.4-2.3 0.5-5.4 1.6-7 2.3-1.5 0.8-4.5 3.4-6.6 5.8-2.2 2.4-5 6.7-6.3 9.6-1.3 2.9-2.9 8.5-3.6 12.5-1.2 6.3-1.7 7.5-4.3 9l-2.9 1.7c-2.5-43.7-2.6-43.9-4.8-43.8-1.2 0-4.7 0.5-7.7 1zm-473.8 2.1c-1.2 0.7-2.5 2.2-2.8 3.3-0.3 1.1-0.3 3 0 4.2 0.5 1.8 1.3 2.2 3.8 2.2h3.3c-1.2 8.2-2.4 13.3-3.5 16.6-1.1 3.2-3.5 8.4-5.3 11.5-2.1 3.5-4.6 6.2-7 7.5-2.8 1.5-4.1 1.7-5.4 0.8-1-0.6-2-1.9-2.1-3-0.2-1 1.5-10.5 3.7-21.1 2.3-10.6 4.1-19.5 4.1-19.7 0-0.3-3.4-0.5-7.5-0.5-6.3 0-7.6 0.2-7.9 1.7-0.3 1-1.9 8.7-3.6 17.3-3 14.6-3.4 15.7-6.9 19.2-2 2.1-5.4 4.7-7.6 5.8-2.2 1-6 1.9-8.5 2-3.1 0-5.1-0.6-6.2-1.8-1.2-1.2-1.8-3.4-1.8-7 0-4.9 0.2-5.3 2.7-5.8 1.6-0.3 4.8-1.3 7.3-2.2 2.5-0.9 6.2-3.4 8.2-5.5 2.1-2 4.5-5.3 5.3-7.2 0.8-2 1.5-5.3 1.5-7.5 0-2.9-0.7-4.9-2.4-6.8-2.3-2.5-3-2.7-9.8-2.7-4.9 0-8.4 0.6-10.6 1.7-1.7 1-4.8 3.3-6.7 5.3-1.9 1.9-4.6 5.7-6 8.5-1.4 2.7-3.2 8-4.1 11.7-0.9 3.9-1.4 9.3-1.2 12.8 0.2 3.2 1.2 7.2 2.1 8.7 0.9 1.5 3.8 3.7 6.4 4.9 3.7 1.6 6 2 10.3 1.6 3-0.3 7.5-1.5 10-2.7 2.5-1.3 6.6-4.3 9.3-6.9l4.7-4.6c-0.1 5.5 0.8 8.1 2 9.7 1.1 1.5 3.7 3.3 5.7 3.9 2.1 0.6 5.7 0.8 8 0.5 2.4-0.4 6.1-1.5 8.3-2.6 2.5-1.3 5.7-4.4 8.5-8.3 2.6-3.4 5.4-8.5 6.5-11.2 1-2.8 2.6-8.9 3.5-13.5 1-5.1 1.5-10.6 1.2-13.5-0.3-2.8-1.2-5.6-1.9-6.2-0.7-0.6-2.2-1.4-3.3-1.7-1.1-0.3-3 0-4.3 0.6zm384.9 2.5c-3 1.5-6.7 4.3-8.1 6.3-1.5 1.9-3.7 5.4-4.9 7.7-1.1 2.3-2.8 7.1-3.6 10.5-0.8 3.4-1.5 8.5-1.5 11.3 0 3.1 0.8 6.6 2.3 9.4 1.7 3.4 3.2 4.9 6.7 6.4 3.5 1.5 5.7 1.8 10 1.2 3-0.3 7.3-1.4 9.5-2.4 2.2-1 6.2-3.8 8.9-6.2 4.4-4 4.9-4.2 4.3-1.9-0.3 1.3-0.8 4.1-1.1 6.2l-0.6 3.8h15c2.1-10.5 4-19.6 5.5-27 2.3-11.9 3.1-13.9 5.6-16.3 1.6-1.5 3.8-2.7 4.9-2.7q2 0 3.5 3.5c1.1 2.6 2.1 3.5 4 3.5 1.4 0 3.7-1.2 5-2.5 1.4-1.4 2.5-3.4 2.5-4.5 0-1.2-0.7-3.4-1.5-5-0.9-1.8-2.5-3.3-4-3.5-1.4-0.3-4.4 0.3-6.8 1.4-2.3 1.1-5.3 2.8-6.5 3.8l-2.3 1.8 1.6-6.6c-15 0-15.5 0.2-16 2.3-0.3 1.2-1.9 9-3.5 17.3l-3.1 15c-7.5 6.9-11.4 9.5-13.5 10.2-2.2 0.7-5.4 1.2-7.2 1.2-1.9 0-4-0.8-5.2-1.9-1.5-1.5-2-3.4-2-7 0-4.7 0.2-5.1 2.7-5.6 1.6-0.4 4.6-1.3 6.8-2.1 2.2-0.7 5.6-2.6 7.5-4.2 1.9-1.5 4.5-4.8 5.7-7.2 1.3-2.5 2.3-6 2.3-7.9 0-2-0.4-4.6-0.8-5.9-0.4-1.3-1.9-3-3.5-3.8-1.5-0.7-5.1-1.4-8-1.4-3.7 0-6.7 0.8-10.6 2.8zm-113.1 22c0 1-0.3 2.8-0.5 4-0.5 2.2-0.4 2.3 10 2.3 7.5 0 10.6-0.4 10.9-1.3 0.2-0.7 0.7-2.5 1-4l0.6-2.7c-20.8 0-22 0.1-22 1.7zm-256.4 1.5c-0.3 1.2-0.6 3.1-0.6 4.3 0 1.9 0.4 1.9 10.2 1.2 6.7-0.4 10.5-1.1 11-2 0.4-0.7 0.8-2.3 0.8-3.5 0-2.2-0.3-2.2-10.4-2.2-10 0-10.4 0-11 2.2z"/>
		<path id="Path 4" class="s4" d="m490 193.4c-3.6 0.8-9.9 2.9-14 4.7-4.1 1.8-10.4 5.2-14 7.5-3.6 2.3-9.4 6.9-12.9 10.1-3.5 3.2-8.3 8.3-10.6 11.3-2.3 3-6.3 9.1-8.8 13.5-2.6 4.4-6 11.7-7.7 16.2-1.7 4.8-3.4 12.2-4.1 17.5-0.5 5.1-0.7 13.4-0.3 18.3 0.3 4.9 1.4 12.1 2.4 16 1 3.9 3 9.7 4.5 13 1.4 3.3 5 9.6 8 14 2.9 4.4 7.5 10.4 10.1 13.4 2.7 3 8.3 8.1 12.4 11.4 4.1 3.3 10.2 7.4 13.5 9.3 3.3 1.8 9.4 4.5 13.5 5.9 4.1 1.4 8.5 2.5 9.8 2.5 1.2 0 3.6 0.7 5.2 1.5 2.8 1.4 3 2 3.5 7.7 0.2 3.5 0.7 14.6 1 24.8 0.3 10.2 0.2 45.6-0.2 78.7l-0.8 60.2c-13.9 3.4-23.2 6.2-29.5 8.3-6.3 2.2-16.2 6.3-22 9-5.8 2.8-12.6 5.7-15.3 6.4-4.6 1.4-4.8 1.3-8.4-1.3-2.1-1.5-12.8-9.8-23.8-18.3-11-8.6-32.6-25.4-48-37.5-15.4-12-36.7-28.7-47.3-37.2-10.5-8.4-19.5-15.9-19.8-16.6-0.3-0.6 0-3 0.6-5.2 0.7-2.2 3.6-9.2 6.6-15.5 2.9-6.3 6-14.4 7-18 1.2-4.7 1.7-10.5 1.6-21.5 0-10.5-0.5-17.1-1.6-22-1-3.9-3.2-10.1-5-14-1.7-3.9-6.1-11.3-9.6-16.5-3.6-5.2-8.8-11.6-11.5-14.4-2.8-2.7-7.9-7.2-11.5-9.9-3.6-2.7-10.6-6.8-15.5-9.3-4.9-2.4-11.9-5.2-15.5-6.1-5-1.3-10.7-1.7-24.5-1.7-17.9 0-18.1 0-28 3.4-6 2.1-13.4 5.6-18.7 9-4.8 3-11.3 7.7-14.5 10.5-3.1 2.7-8.3 8.6-11.6 13-3.2 4.4-8.2 12.7-11.1 18.5-3 5.8-6.3 13.6-7.5 17.5-1.5 4.8-2.1 9.6-2.1 15.5 0 4.7 0.5 12.6 1 17.5 0.6 4.9 2 12.1 3.1 16 1.2 3.9 3.4 9.5 4.9 12.5 1.5 3 5.4 9.1 8.7 13.5 3.3 4.4 7.9 10 10.4 12.5 2.4 2.5 7.8 7.1 11.9 10.2 4.1 3.1 10.7 7.2 14.5 9.2 3.8 1.9 10.8 4.6 15.5 5.8 7.2 1.9 11 2.3 25.5 2.3 16.1 0 17.4-0.2 25-2.8 4.4-1.6 11.2-4.4 15-6.4 3.8-2 9.6-5.3 12.7-7.4 3.2-2.2 6.4-3.7 7-3.5 0.7 0.2 9.9 7.1 20.3 15.3 10.4 8.2 37 29 59 46.3 22 17.3 45.9 36.1 53 41.8 7.1 5.7 13.1 10.7 13.3 11 0.1 0.4-2.3 4.1-5.5 8.2-3.1 4.1-8 11.1-10.8 15.5-2.9 4.4-6.6 10.7-8.3 14-1.6 3.3-4.6 10.7-6.6 16.5-2 5.8-4.9 16.6-6.5 24l-2.7 13.5h-169.7c-3.4-12.4-5.4-18.7-6.6-22-1.3-3.3-3.3-8-4.6-10.5-1.3-2.5-4.3-7.3-6.7-10.7-2.4-3.4-6.6-8.6-9.3-11.4-2.8-2.9-8.6-7.9-13-11.2-4.4-3.2-12.1-7.9-17-10.2-5-2.4-11.5-4.9-14.5-5.7-3.6-0.8-11.9-1.3-24-1.3-16.6 0-19.3 0.2-26 2.4-4.1 1.3-10 3.6-13 5.1-3 1.5-9.1 5.3-13.5 8.5-4.4 3.1-10 7.6-12.4 9.8-2.4 2.3-7 7.8-10.3 12.2-3.3 4.4-7.5 10.9-9.3 14.5-1.8 3.6-4.3 9.4-5.5 13-2 5.5-2.4 9.2-2.7 24-0.4 13.6-0.1 19.2 1.1 25 0.9 4.1 3 10.4 4.7 14 1.7 3.6 5.6 10.3 8.7 15 3.1 4.7 8.8 11.7 12.7 15.5 3.8 3.9 10.6 9.5 15 12.5 4.4 3 11.4 6.9 15.5 8.8 4.1 1.9 10.4 4.1 14 4.8 3.8 0.8 12.7 1.4 21.5 1.4 9.6 0 17.5-0.6 22-1.5 3.8-0.9 9.7-2.7 13-4.2 3.3-1.5 9.8-5.1 14.5-8.1 4.7-3 11.2-8 14.4-11.1 3.2-3.1 8.6-9 11.9-13.1 3.3-4.1 7.5-10.6 9.3-14.5 1.8-3.9 4.8-12.4 6.7-19l3.4-12c90.5 0.4 129.3 0.9 144.6 1.3 21.1 0.5 27.7 1 27.7 1.9 0 0.7 1.8 7.2 4 14.3 2.2 7.1 5.7 16.9 7.8 21.7 2 4.9 6.8 13.5 10.7 19.3 3.8 5.8 11.1 14.9 16.5 20.4 5.2 5.4 13.3 12.7 18 16.2 5.5 4.1 12.9 8.4 20.7 11.9 6.8 3 16 6.6 20.5 7.9 4.6 1.3 13.7 3 20.3 3.6 7.2 0.8 16.8 1 24 0.7 6.6-0.4 14.9-1.2 18.5-1.7 3.6-0.6 10.5-2.5 15.5-4.2 5-1.6 13.7-5.4 19.5-8.4 6.4-3.2 14.6-8.6 21-13.7 5.8-4.6 13.7-12.2 17.6-16.8 3.9-4.6 9.2-11.3 11.9-14.9 2.6-3.6 6.2-9.5 8.1-13.3 1.9-3.7 4.8-10.2 6.5-14.5 1.7-4.2 4.2-12.4 5.5-18.2 1.4-5.8 2.7-11.3 2.9-12.3 0.5-1.6 5.5-1.7 87.3-1.7l86.7-0.1c4.5 11.3 8 19.1 10.8 24.6 2.7 5.5 6.6 12.5 8.7 15.5 2.1 3 7.1 8.7 11.1 12.5 4.1 3.9 10.8 9.3 14.9 12.1 4.1 2.7 11.1 6.5 15.5 8.3 4.4 1.8 10.9 3.9 14.5 4.6 3.6 0.8 10.8 1.7 16 2 5.7 0.4 12.7 0.2 17.5-0.5 4.4-0.6 10.2-1.8 13-2.7 2.7-0.9 7.7-2.9 11-4.5 3.3-1.7 9.6-5.4 14-8.3 4.9-3.2 11.8-9.2 17.9-15.6 5.4-5.7 11.1-12.7 12.6-15.4 1.5-2.8 4.4-9.3 6.3-14.5 1.9-5.2 4.3-13.3 5.2-18 0.9-4.7 1.7-12.3 1.7-17 0-5.5-0.7-11.1-2-16-1.1-4.1-3.8-11.5-5.8-16.5-2.1-5-6.4-12.8-9.5-17.5-3.1-4.7-8.6-11.2-12-14.6-3.5-3.4-10.2-8.6-14.9-11.7-4.7-3-11.4-6.9-15-8.5-3.6-1.7-9.4-3.8-13-4.8-5-1.4-10.3-1.8-22.5-1.8-9.4-0.1-18.3 0.4-21.5 1.2-3 0.7-10.5 3.7-16.5 6.7-6 3-15 8.5-20 12.2-5.7 4.3-11.2 9.7-15.3 14.8-3.5 4.4-7.9 10.7-9.7 14-1.9 3.3-4.8 9.8-6.6 14.5-1.7 4.7-3.7 11.9-4.5 16-0.7 4.1-1.3 8.1-1.4 8.7 0 1-17.9 1.3-86.3 1.3h-86.2c-4.4-21.3-7-31.5-8.7-36.5-1.6-5-4.5-12.4-6.4-16.5-1.9-4.1-6.9-12.5-11-18.5-4.1-6-8.9-12.8-10.5-15-2.1-2.7-2.9-4.7-2.5-6 0.4-1.1 6.4-6.3 13.4-11.6 7-5.3 26.7-20.4 43.7-33.4 17-13.1 41.9-32.3 55.2-42.6 13.4-10.4 25.8-19.8 27.5-20.9 1.8-1.1 4.1-2 5-2 1 0 3 0.9 4.5 1.9 1.6 1.1 6.6 3.7 11.3 6 4.7 2.2 12.1 5 16.5 6.3 7 2 10 2.3 25 2.2 15.4-0.1 17.8-0.3 25.7-2.7 4.9-1.5 11.2-3.9 14-5.3 2.9-1.5 7.5-4.3 10.3-6.2 2.7-2 8.5-7 12.9-11.2 4.3-4.1 10.6-10.9 13.9-15 3.3-4.1 7-9.6 8.3-12.3 1.3-2.6 3.6-8.9 5-14 2-7.3 2.7-12.2 3.1-24.2 0.4-11.5 0.1-16.8-1.1-22.5-0.9-4.1-3.5-11.6-5.9-16.5-2.4-4.9-6.6-12.4-9.4-16.5-2.7-4.1-7.4-9.9-10.4-12.8-3-2.9-9.2-7.9-13.9-11.1-4.7-3.2-12.3-7.8-17-10.1-4.7-2.3-11.4-4.9-15-5.6-3.6-0.8-12.4-1.4-19.5-1.4-7.1 0-15.9 0.5-19.5 1.1-3.6 0.5-10.3 2.6-15 4.5-4.7 1.9-12.8 6.3-18 9.8-5.2 3.5-12.4 9.4-16 13.2-3.6 3.8-9.1 10.7-12.2 15.4-3.1 4.7-6.6 11-7.8 14-1.2 3-3 9.1-4 13.5-1.1 4.4-2.2 11.8-2.6 16.5-0.3 4.7-0.1 12.8 0.5 18 0.6 5.2 2.1 12.6 3.4 16.5 1.3 3.9 4.1 10.4 6.2 14.5 2.1 4.1 5.5 10.1 7.6 13.2l3.9 5.8c-50.8 39.2-70.5 54.4-76.5 59-6 4.6-23.9 18.4-39.8 30.7-15.8 12.3-29.2 22.3-29.7 22.3-0.5 0-5.4-2.2-10.8-4.9-5.3-2.7-15.1-7.1-21.7-9.9-6.6-2.8-16.7-6.2-22.5-7.5-5.8-1.4-12.2-2.8-14.3-3.1l-3.7-0.6v-170c6.6-1.6 11.6-3 15.5-4.1 3.9-1.2 10.1-3.5 14-5.3 3.9-1.8 9.9-5.2 13.5-7.6 3.6-2.5 9.8-7.6 13.9-11.5 4-3.8 9.4-9.7 11.8-13 2.5-3.3 5.8-8.6 7.4-11.8 1.6-3.1 4-9.6 5.4-14.5 1.4-4.8 2.9-13 3.4-18.2 0.5-5.5 0.5-13.5 0-19-0.5-5.2-1.8-12.8-2.9-16.8-1.1-3.9-3.4-10-5.1-13.5-1.7-3.4-5.1-9.1-7.4-12.7-2.4-3.6-7.2-9.2-10.7-12.6-3.4-3.3-9.2-8.1-12.8-10.6-3.6-2.5-10.5-6.7-15.5-9.2-5-2.5-11.7-5.3-15-6.2-4-1.1-11.4-1.7-22.5-2-11.4-0.2-18.5 0.1-23 1z"/>
		<path id="Path 5" class="s5" d="m520.5 466c0 47 0.1 66.1 0.2 42.5 0.2-23.6 0.2-62.1 0-85.5-0.1-23.4-0.2-4-0.2 43zm169.5 236.7c23.9 0.2 63.3 0.2 87.5 0 24.2-0.1 4.6-0.2-43.5-0.2-48.1 0-67.9 0.1-44 0.2zm-374.5 1c2.8 0.2 6.8 0.2 9 0 2.2-0.2-0.1-0.3-5-0.3-4.9 0-6.8 0.1-4 0.3z"/>
		<path id="Path 6" class="s6" d="m490.8 149.3c0.4 0.4 4.1 0.6 8.2 0.5l7.5-0.3c-12.7-0.8-16.1-0.7-15.7-0.2zm9.6 391.7c0 5.2 0.1 7.3 0.3 4.5 0.2-2.8 0.2-7 0-9.5-0.2-2.5-0.3-0.2-0.3 5zm-485.1 151.5c0 4.4 0.2 6 0.4 3.5 0.2-2.5 0.2-6.1 0-8-0.2-1.9-0.4 0.1-0.4 4.5zm281.7 11.2c2.5 0.2 6.8 0.2 9.5 0 2.8-0.2 0.7-0.3-4.5-0.3-5.2 0-7.5 0.1-5 0.3zm192 191c2.5 0.2 6.1 0.2 8 0 1.9-0.2-0.1-0.4-4.5-0.4-4.4 0-6 0.2-3.5 0.4zm106.5 31c3.3 0.2 8.3 0.2 11 0 2.8-0.2 0-0.3-6-0.3-6 0-8.3 0.1-5 0.3zm138 23.3l-8 0.6c12.1 0.3 15.7 0 16-0.6 0.2-0.5 0.3-0.9 0.2-0.8-0.1 0.1-3.8 0.5-8.2 0.8zm-334.5 1.7c1.9 0.2 5.3 0.2 7.5 0 2.2-0.2 0.6-0.4-3.5-0.4-4.1 0-5.9 0.2-4 0.4z"/>
		<path id="Path 7" class="s7" d="m808 308.7c2.5 0.2 6.1 0.2 8 0 1.9-0.2-0.1-0.4-4.5-0.4-4.4 0-6 0.2-3.5 0.4zm-702.5 290c1.7 0.2 4.8 0.2 7 0 2.2-0.2 0.8-0.4-3-0.4-3.8 0-5.7 0.2-4 0.4zm142 84c23.6 0.2 61.9 0.2 85 0 23.1-0.1 3.8-0.2-43-0.2-46.8 0-65.7 0.1-42 0.2zm444.5 0c23.9 0.2 62.6 0.2 86 0 23.4-0.1 3.8-0.2-43.5-0.2-47.3 0-66.4 0.1-42.5 0.2z"/>
		<path id="Path 8" class="s8" d="m495.5 574c-3.9 0.4-10.4 1.7-14.5 2.9-4.1 1.1-10 3-13 4.2-3 1.2-7.8 3.2-10.5 4.6-2.8 1.4-7.5 4.4-10.5 6.6-3 2.2-7.9 6.1-10.8 8.6-2.9 2.5-8.3 8.2-12 12.6-3.7 4.3-8.6 10.9-11 14.5-2.3 3.6-5.6 10.1-7.3 14.5-1.7 4.4-4.2 12.3-5.5 17.5-1.4 5.5-2.7 14.1-3 20.5-0.4 7.6-0.1 14.5 1 22.5 0.9 6.3 2.3 14.2 3.1 17.5 0.9 3.3 3.5 10 5.9 15 2.3 5 7.1 13.3 10.6 18.5 3.6 5.2 9.6 12.6 13.5 16.5 5.2 5.2 10.1 8.9 19 13.9 6.6 3.8 15.1 8.1 19 9.7 3.9 1.5 9.7 3.5 13 4.4 3.3 0.8 12.1 2.1 19.5 2.7 10.3 0.8 15.9 0.8 23.5-0.2 5.5-0.6 13.7-2.3 18.3-3.6 4.5-1.3 12.1-4.1 16.9-6.2 4.9-2.1 11.5-5.6 14.8-7.9 3.3-2.3 9.1-6.9 13-10.4 3.9-3.4 9.3-9 12-12.5 2.8-3.4 7.1-9.7 9.7-14.1 2.5-4.3 6.2-11.6 8.1-16.3 2-4.7 4.1-11.9 4.7-16 0.8-4.9 1.1-16.1 0.8-32-0.4-23.2-0.6-24.9-3.1-32.5-1.5-4.4-4.8-11.6-7.3-16-2.6-4.4-7-11.1-9.9-15-2.8-3.9-8.3-9.9-12.1-13.5-3.8-3.6-9.6-8.5-12.9-11-3.3-2.4-11-6.8-17-9.7-6-2.9-14.4-6.2-18.5-7.2-4.1-1.1-11.9-2.4-17.3-3-5.3-0.6-12.7-1-16.4-1-3.8 0.1-9.9 0.5-13.8 0.9z"/>
		<path id="Path 9" class="s9" d="m192.5 329.1c-3.9 0.6-9.8 2.7-17 6.2-6.1 3-13.5 7.4-16.5 9.9-3 2.4-7.7 7.3-10.3 10.9-2.7 3.5-6.5 9.8-8.5 13.9-2.4 5.2-3.9 10.3-4.9 16.5-0.7 4.9-1.3 12.8-1.3 17.5 0.1 4.7 0.7 12.1 1.5 16.5 1 5.4 2.9 10.9 5.9 17 2.5 4.9 6.1 11.1 8.1 13.7 1.9 2.7 6.8 7.2 10.8 10.2 3.9 3 9.7 6.6 12.7 8.1 3 1.5 8 3.6 11 4.7 3 1 8.9 2.3 13 2.9 5.2 0.7 10.9 0.7 18.5 0 6.1-0.6 13.7-1.8 17-2.6 3.3-0.9 9.2-3.6 13-5.9 3.8-2.4 9.6-6.8 12.9-9.7 3.2-3 8-8.1 10.7-11.4 2.6-3.3 5.9-8.5 7.3-11.5 1.4-3 3.5-9.1 4.7-13.5 1.5-5.8 2.1-11 2.2-19 0-7.3-0.6-13.3-1.8-18-0.9-3.9-3.5-10.8-5.7-15.5-2.2-4.7-5.6-10.7-7.6-13.4-2-2.8-7.1-7.9-11.2-11.4-4.1-3.5-9.8-7.5-12.5-8.9-2.7-1.4-6.8-3.2-9-4-2.2-0.8-8.7-2.1-14.5-2.8-5.8-0.8-13.2-1.4-16.5-1.4-3.3 0.1-8.7 0.5-12 1z"/>
		<path id="Path 10" class="s10" d="m803 327.6c-1.4 0.2-5.2 0.9-8.5 1.5-3.3 0.6-9.6 2.9-14 5.1-4.4 2.2-11.1 6.1-14.9 8.6-3.8 2.6-9.2 7.2-11.9 10.2-2.7 3.1-7 9.9-9.8 15.5-3.4 7-5.4 12.6-6.5 18.5-1.1 6-1.4 11.6-1 19 0.3 5.9 1.5 13.8 2.7 18 1.1 4.1 3.6 10.4 5.5 14 1.9 3.6 5.5 9.3 8.2 12.8 2.6 3.5 7.6 8.6 11.2 11.3 3.6 2.7 9.4 6.4 13 8.3 3.6 1.9 9.6 4.2 13.5 5.1 4.5 1.1 11.1 1.7 18.5 1.7 6.3 0 14.9-0.5 19-1.2 4.1-0.7 9.3-1.9 11.5-2.7 2.2-0.8 6.9-3.4 10.5-5.8 3.6-2.3 9.9-7.6 14.1-11.7 4.2-4 9.5-10.2 11.8-13.8 2.3-3.6 5.1-9.4 6.2-13 1.1-3.6 2.7-10.1 3.6-14.5 1-5.2 1.4-10.6 1-15.5-0.3-4.1-1.4-11.2-2.6-15.8-1.2-4.5-3.1-10.3-4.4-13-1.2-2.6-4-7.1-6.2-10.1-2.2-3-7.8-9-12.5-13.4-5.5-5.1-10.9-9.1-15.5-11.3-3.9-1.9-11-4.3-16-5.4-5-1-12.4-2.1-16.5-2.4-4.1-0.2-8.6-0.2-10 0z"/>
		<path id="Path 11" class="s11" d="m499 211.7c-1.4 0.2-5.8 1.3-9.8 2.4-3.9 1-10.5 3.5-14.4 5.5-5.6 2.8-9.5 5.8-16.5 13-7.5 7.6-10.1 11-13.3 17.7-2.1 4.5-4.8 12-5.9 16.7-1.1 4.7-2.2 11.2-2.6 14.5-0.4 3.8-0.1 9.3 0.9 15.3 0.9 5 3 12.9 4.6 17.5 1.7 4.5 4.6 10.6 6.5 13.5 1.9 2.8 6.6 8.2 10.4 12 3.8 3.7 10.3 8.7 14.7 11.2 4.3 2.5 10.2 5.3 12.9 6.2 2.8 0.9 9.1 2.2 14 2.8 4.9 0.6 12.4 0.9 16.5 0.5 4.1-0.4 10.9-1.5 15-2.5 4.1-1 11.3-3.7 16-6 4.9-2.5 10.8-6.5 13.9-9.4 2.9-2.8 7.3-7.8 9.6-11.1 2.3-3.3 5.4-8.2 6.8-11 1.4-2.7 3.5-8.4 4.8-12.5 2-6.4 2.3-9.6 2.3-22 0-10.6-0.5-16.2-1.8-21-0.9-3.6-3.5-9.9-5.6-14-2.2-4.1-6.4-10.6-9.3-14.5-3.5-4.6-7.7-8.6-12.2-11.7-3.9-2.6-10.4-6.2-14.5-7.9-4.1-1.7-10.9-3.8-15-4.5-4.1-0.7-11.5-1.3-16.5-1.2-4.9 0-10.1 0.3-11.5 0.5z"/>
		<path id="Path 12" class="s12" d="m902.5 613.1c-3.3 0.5-8.7 2.1-12 3.4-3.3 1.4-9.6 4.6-13.9 7.2-4.4 2.7-11 7.7-14.6 11.3-4.9 4.8-7.9 8.9-11.2 15.5-2.5 5-5.4 11.7-6.5 15-1.4 4.8-1.8 9.1-1.7 21 0 10.6 0.6 17.1 1.8 22 0.9 3.8 3.3 10.1 5.3 14 1.9 3.8 4.8 8.8 6.3 11 1.5 2.2 4.9 6.1 7.6 8.6 2.7 2.5 7.8 6.5 11.4 8.8 3.6 2.3 9.2 5 12.5 6.1 3.3 1 8.7 2.4 12 3 3.3 0.5 10 1.3 15 1.6 5.6 0.4 11.7 0.2 16-0.5 3.9-0.7 9.9-2.5 13.5-3.9 3.6-1.5 9.2-4.4 12.5-6.5 3.3-2.2 8.4-6 11.4-8.6 3-2.5 7.6-7.8 10.3-11.6 2.7-3.9 6.2-10.5 7.8-14.8 1.7-4.2 3.7-12.1 4.6-17.5 1.4-7.9 1.5-11.3 0.6-18.2-0.5-4.7-2.4-12.7-4.1-17.8-1.7-5-4.7-11.8-6.7-15-2.1-3.1-6.7-8.8-10.3-12.5-3.6-3.8-9.5-8.6-13.1-10.8-3.6-2.1-9.4-5-13-6.4-3.6-1.4-10.5-3.2-15.5-4-5-0.8-11.5-1.4-14.5-1.4-3 0.1-8.2 0.6-11.5 1z"/>
		<path id="Path 13" class="s0" d="m479.4 100.1c-1.1 0.4-3.2 2.7-4.6 5.1-1.5 2.4-3.3 6.8-4.2 9.8-0.9 3-1.4 5.7-1.1 6 0.3 0.3 1.7-0.1 3.2-0.7 1.6-0.7 4-2.5 5.5-4 1.5-1.6 3.4-4.5 4.2-6.5 0.9-2.1 1.7-4.9 1.8-6.2 0.2-1.3-0.4-2.8-1.3-3.4-0.9-0.5-2.4-0.6-3.5-0.1zm81.2 2.2c-1.8 1.9-4.2 6.3-5.6 10.4-1.4 4-2.2 7.5-1.7 8 0.4 0.4 2.3 0 4.2-0.9 1.9-1 4.6-3.3 6-5 1.4-1.8 3-5.3 3.5-7.8 0.6-2.5 0.8-5.3 0.5-6.2-0.3-1-1.2-1.8-2.1-1.8-0.9 0-3.1 1.5-4.8 3.3zm42.4 1.5c-2.1 2.1-4.6 6.2-5.9 9.7-1.3 3.3-2.5 8.9-2.8 12.5-0.3 3.6-0.3 7.7 0.1 9.3 0.3 1.5 1.3 2.9 2.1 3.2 0.8 0.3 2.7 0 4.3-0.5 1.5-0.6 3.5-2.2 4.5-3.5 0.9-1.4 3.1-8.8 4.7-16.5 1.6-7.7 3-14.2 3-14.5 0-0.3-0.7-1.2-1.5-2-0.8-0.8-2.2-1.5-3.1-1.5-0.9 0-3.3 1.7-5.4 3.8zm-246.9-0.9c-1.2 1.2-3 3.8-4 5.9-1 2-2.6 6.2-3.4 9.2-0.9 3-1.9 8-2.2 11-0.4 3.6-0.1 6.3 0.7 8 0.8 1.4 2.2 2.6 3.3 2.8 1.1 0.2 3-0.4 4.3-1.3 1.2-0.8 3.3-3.6 4.6-6.2 1.2-2.7 2.8-7 3.5-9.8 1-4.2 0.9-5.2-0.4-6.5-0.8-0.8-1.5-2.4-1.5-3.5 0-1.1 0.7-3 1.5-4.2 0.8-1.3 1.4-3.3 1.3-4.5-0.2-1.7-1.1-2.4-3-2.6-1.7-0.2-3.4 0.4-4.7 1.7zm323.3-0.8c-2.8 0.8-3 1.1-6.1 16.4-2.4 11.4-3 16-2.3 17.5 0.7 1.4 2 2 4.5 2 2.8 0 4-0.7 5.9-3.2 1.4-1.8 3.2-5.3 4.1-7.8 0.9-2.5 1.9-7.6 2.2-11.5 0.3-4.1 0-8.2-0.6-9.7-0.6-1.6-1.9-3.2-2.9-3.6-1.1-0.5-3.2-0.5-4.8-0.1zm41.6 52c-1.9 1.1-4.1 2.8-4.8 3.7-0.7 1-1.2 2.9-1.2 4.5 0 2.1 0.6 2.8 2.5 3.2 1.4 0.3 3.2-0.1 4.1-0.7 0.8-0.7 1.9-2.6 2.4-4.3 0.4-1.6 1-4.2 1.2-5.7 0.3-1.6 0.2-2.8-0.1-2.8-0.3 0-2.2 0.9-4.1 2.1zm-6.8 746.2c-1.2 0.7-3.3 3-4.7 5.2-1.4 2.2-3.2 6.5-4.1 9.5-0.8 3-1.4 5.6-1.2 5.8 0.2 0.2 1.4 0 2.8-0.4 1.4-0.5 3.8-1.9 5.4-3.3 1.6-1.5 3.4-3.7 4.1-5.1 0.7-1.4 1.5-4.1 1.9-6 0.4-2.2 0.2-4.1-0.6-5.2-1.1-1.5-1.6-1.6-3.6-0.5zm123.6 1.4c-1.5 1.5-3.5 4.8-4.6 7.3-1.1 2.5-2.5 6.2-3.1 8.2-1 3.4-0.9 3.8 0.7 3.8 0.9 0 3.2-1.1 5.1-2.3 1.9-1.2 4.5-4 5.8-6.2 1.7-2.9 2.3-5.2 2.1-8.5-0.2-3.1-0.8-4.6-1.8-4.8-0.9-0.1-2.8 1-4.2 2.5zm-570 1c-0.9 1-2.7 4-4.1 6.8-1.4 2.7-2.8 6.7-3.1 8.7-0.5 3.3-0.4 3.8 1.4 3.8 1.1 0 3.8-1.7 6.1-3.8 3-2.7 4.4-5 5.3-8.7 0.7-2.8 1.1-5.8 1-6.8-0.3-1-1.3-1.7-2.8-1.7-1.2 0-3 0.8-3.8 1.7zm518.2 6c0 0.7-1.6 4.7-3.5 8.8-3 6.4-3.3 7.8-2.3 9.5 1 1.4 1 2.7 0.3 4.7-0.7 2-1.8 2.9-3.8 3-1.5 0.2-2.7 0.9-2.7 1.5-0.1 0.7 0.7 2.1 1.7 3 1 1 2.5 1.8 3.3 1.8 0.8 0 2.8-0.4 4.5-0.9 1.7-0.6 3.6-2.2 4.3-3.8 1-2.1 1.2-5.7 0.7-14.3-0.3-6.3-1-12.2-1.5-13q-1-1.5-1-0.3z"/>
		<path id="Path 14" class="s13" d="m96 619.1c-3.6 0.5-8.1 1.4-10 2-1.9 0.7-6.7 2.8-10.5 4.7-3.8 1.9-9.5 5.1-12.5 7.2-3 2-7.6 6.3-10.3 9.6-2.6 3.2-6.7 9.7-9.1 14.4-2.4 4.7-5.4 11.6-6.6 15.5-1.8 5.6-2.2 9.5-2.3 19 0 7.9 0.6 14.4 1.7 19 0.9 3.8 3.5 10.6 5.7 15 2.2 4.4 5.9 10.7 8.2 13.9 2.3 3.3 7.3 8.4 11.2 11.3 3.8 2.9 10.6 7.1 15 9.3 4.4 2.1 10.9 4.6 14.5 5.4 3.6 0.9 9.9 1.9 14 2.2 4.1 0.4 10.7 0.1 14.8-0.5 3.9-0.6 9.3-1.8 12-2.7 2.6-0.8 9-3.6 14.2-6.2 7.6-3.7 11-6.2 17-12.2 4.9-4.9 9-10.2 11.8-15.3 2.3-4.2 5.1-10.4 6.2-13.7 1.1-3.3 2.5-10.2 3-15.3 0.7-6.2 0.7-12.1 0.1-18.2-0.6-5-1.7-11-2.4-13.5-0.7-2.5-3.1-8-5.3-12.3-2.1-4.4-5.9-10.2-8.3-13-2.5-2.9-6.7-7.1-9.5-9.5-2.8-2.4-9.2-6.3-14.1-8.8-4.9-2.4-12.2-5.1-16-5.9-3.8-0.7-11.3-1.6-16.5-1.9-5.2-0.2-12.4-0.1-16 0.5z"/>
	</g>
</svg>