<svg version="1.2" xmlns="http://www.w3.org/2000/svg" viewBox="0 0 1080 1080" width="64" height="64"><style>.a{display:none}</style><path fill-rule="evenodd" class="a" d="m0 90c0-49.8 30.2-90 67.5-90h810c37.3 0 67.5 40.2 67.5 90 0 49.8-30.2 90-67.5 90h-810c-37.3 0-67.5-40.2-67.5-90zm135 450c0-49.8 30.2-90 67.5-90h810c37.3 0 67.5 40.2 67.5 90 0 49.8-30.2 90-67.5 90h-810c-37.3 0-67.5-40.2-67.5-90zm810 450c0 49.8-30.2 90-67.5 90h-810c-37.3 0-67.5-40.2-67.5-90 0-49.8 30.2-90 67.5-90h810c37.3 0 67.5 40.2 67.5 90z"/><path fill-rule="evenodd" d="m0 116.7c0-46.8 34.5-84.7 77.1-84.7h925.8c42.6 0 77.1 37.9 77.1 84.7 0 46.9-34.5 84.8-77.1 84.8h-925.8c-42.6 0-77.1-37.9-77.1-84.8zm0 423.7c0-46.9 34.5-84.7 77.1-84.7h925.8c42.6 0 77.1 37.8 77.1 84.7 0 46.9-34.5 84.7-77.1 84.7h-925.8c-42.6 0-77.1-37.8-77.1-84.7zm1080 423.6c0 46.9-34.5 84.8-77.1 84.8h-925.8c-42.6 0-77.1-37.9-77.1-84.8 0-46.8 34.5-84.7 77.1-84.7h925.8c42.6 0 77.1 37.9 77.1 84.7z"/></svg>